<svg width="20" height="20" viewBox="0 0 20 20" fill="none" xmlns="http://www.w3.org/2000/svg">
<defs>
<linearGradient id="paint0_linear_102_7" x1="10.0001" y1="0" x2="10.0001" y2="20" gradientUnits="userSpaceOnUse">
<stop stop-color="#7F00FF"/>
<stop offset="1" stop-color="#E100FF"/>
</linearGradient>
</defs>
<path d="M8.80672 0C8.28972 0 7.79577 0.204313 7.42977 0.570312L7.00008 1H2.00008C1.86757 0.998126 1.73601 1.02261 1.61304 1.07202C1.49007 1.12143 1.37815 1.1948 1.28378 1.28784C1.18941 1.38088 1.11447 1.49176 1.06333 1.61401C1.01218 1.73627 0.98584 1.86747 0.98584 2C0.98584 2.13253 1.01218 2.26373 1.06333 2.38599C1.11447 2.50824 1.18941 2.61912 1.28378 2.71216C1.37815 2.8052 1.49007 2.87857 1.61304 2.92798C1.73601 2.97739 1.86757 3.00187 2.00008 3H18.0001C18.1326 3.00187 18.2642 2.97739 18.3871 2.92798C18.5101 2.87857 18.622 2.8052 18.7164 2.71216C18.8108 2.61912 18.8857 2.50824 18.9368 2.38599C18.988 2.26373 19.0143 2.13253 19.0143 2C19.0143 1.86747 18.988 1.73627 18.9368 1.61401C18.8857 1.49176 18.8108 1.38088 18.7164 1.28784C18.622 1.1948 18.5101 1.12143 18.3871 1.07202C18.2642 1.02261 18.1326 0.998126 18.0001 1H13.0001L12.5704 0.570312C12.2054 0.204313 11.7104 0 11.1934 0H8.80672ZM2.36532 5L3.89266 18.2637C4.02466 19.2537 4.87708 20 5.87508 20H14.1231C15.1211 20 15.9745 19.2549 16.1075 18.2559L17.6348 5H2.36532Z" fill="url(#paint0_linear_102_7)"/>
</svg>
