<svg width="24" height="24" viewBox="0 0 24 24" fill="none" xmlns="http://www.w3.org/2000/svg">
<defs>
<filter id="filter0_d_1_225" x="-18" y="-10" width="68" height="68" filterUnits="userSpaceOnUse" color-interpolation-filters="sRGB">
<feFlood flood-opacity="0" result="BackgroundImageFix"/>
<feColorMatrix in="SourceAlpha" type="matrix" values="0 0 0 0 0 0 0 0 0 0 0 0 0 0 0 0 0 0 127 0" result="hardAlpha"/>
<feMorphology radius="4" operator="dilate" in="SourceAlpha" result="effect1_dropShadow_1_225"/>
<feOffset dx="4" dy="12"/>
<feGaussianBlur stdDeviation="10"/>
<feColorMatrix type="matrix" values="0 0 0 0 0.882353 0 0 0 0 0 0 0 0 0 1 0 0 0 0.21 0"/>
<feBlend mode="normal" in2="BackgroundImageFix" result="effect1_dropShadow_1_225"/>
<feBlend mode="normal" in="SourceGraphic" in2="effect1_dropShadow_1_225" result="shape"/>
</filter>
<linearGradient id="paint0_linear_1_225" x1="-0.714287" y1="-1.57143" x2="26.4286" y2="26.5714" gradientUnits="userSpaceOnUse">
<stop stop-color="#7F00FF"/>
<stop offset="1" stop-color="#E100FF"/>
</linearGradient>
</defs>
<g filter="url(#filter0_d_1_225)">
<path d="M8 2H16C17.5913 2 19.1174 2.63214 20.2426 3.75736C21.3679 4.88258 22 6.4087 22 8V16C22 17.5913 21.3679 19.1174 20.2426 20.2426C19.1174 21.3679 17.5913 22 16 22H8C6.4087 22 4.88258 21.3679 3.75736 20.2426C2.63214 19.1174 2 17.5913 2 16L2 8C2 6.4087 2.63214 4.88258 3.75736 3.75736C4.88258 2.63214 6.4087 2 8 2V2ZM8 4C6.93913 4 5.92172 4.42143 5.17157 5.17157C4.42143 5.92172 4 6.93913 4 8V16C4 17.0609 4.42143 18.0783 5.17157 18.8284C5.92172 19.5786 6.93913 20 8 20H16C17.0609 20 18.0783 19.5786 18.8284 18.8284C19.5786 18.0783 20 17.0609 20 16V8C20 6.93913 19.5786 5.92172 18.8284 5.17157C18.0783 4.42143 17.0609 4 16 4H8ZM14 11H17C17.2652 11 17.5196 11.1054 17.7071 11.2929C17.8946 11.4804 18 11.7348 18 12C18 12.2652 17.8946 12.5196 17.7071 12.7071C17.5196 12.8946 17.2652 13 17 13H14C13.7348 13 13.4804 12.8946 13.2929 12.7071C13.1054 12.5196 13 12.2652 13 12C13 11.7348 13.1054 11.4804 13.2929 11.2929C13.4804 11.1054 13.7348 11 14 11ZM12 15H17C17.2652 15 17.5196 15.1054 17.7071 15.2929C17.8946 15.4804 18 15.7348 18 16C18 16.2652 17.8946 16.5196 17.7071 16.7071C17.5196 16.8946 17.2652 17 17 17H12C11.7348 17 11.4804 16.8946 11.2929 16.7071C11.1054 16.5196 11 16.2652 11 16C11 15.7348 11.1054 15.4804 11.2929 15.2929C11.4804 15.1054 11.7348 15 12 15ZM12 7H17C17.2652 7 17.5196 7.10536 17.7071 7.29289C17.8946 7.48043 18 7.73478 18 8C18 8.26522 17.8946 8.51957 17.7071 8.70711C17.5196 8.89464 17.2652 9 17 9H12C11.7348 9 11.4804 8.89464 11.2929 8.70711C11.1054 8.51957 11 8.26522 11 8C11 7.73478 11.1054 7.48043 11.2929 7.29289C11.4804 7.10536 11.7348 7 12 7ZM7.828 12.243L9.95 10.12C10.0429 10.0272 10.1532 9.95352 10.2746 9.9033C10.3959 9.85308 10.526 9.82725 10.6574 9.8273C10.7887 9.82734 10.9188 9.85326 11.0401 9.90357C11.1614 9.95388 11.2717 10.0276 11.3645 10.1205C11.4573 10.2134 11.531 10.3237 11.5812 10.4451C11.6314 10.5664 11.6572 10.6965 11.6572 10.8279C11.6572 10.9592 11.6312 11.0893 11.5809 11.2106C11.5306 11.3319 11.4569 11.4422 11.364 11.535L8.536 14.363C8.44313 14.456 8.33284 14.5297 8.21144 14.5801C8.09004 14.6304 7.95992 14.6563 7.8285 14.6563C7.69708 14.6563 7.56696 14.6304 7.44556 14.5801C7.32416 14.5297 7.21387 14.456 7.121 14.363L5.707 12.95C5.52484 12.7614 5.42405 12.5088 5.42633 12.2466C5.4286 11.9844 5.53377 11.7336 5.71918 11.5482C5.90459 11.3628 6.1554 11.2576 6.4176 11.2553C6.6798 11.253 6.9324 11.3538 7.121 11.536L7.828 12.243Z" fill="url(#paint0_linear_1_225)"/>
</g>
</svg>
