<svg width="24" height="24" viewBox="0 0 24 24" fill="none" xmlns="http://www.w3.org/2000/svg">
<defs>
<filter id="filter0_d_1_214" x="-18.0005" y="-10.0009" width="68.0007" height="67.9929" filterUnits="userSpaceOnUse" color-interpolation-filters="sRGB">
<feFlood flood-opacity="0" result="BackgroundImageFix"/>
<feColorMatrix in="SourceAlpha" type="matrix" values="0 0 0 0 0 0 0 0 0 0 0 0 0 0 0 0 0 0 127 0" result="hardAlpha"/>
<feMorphology radius="4" operator="dilate" in="SourceAlpha" result="effect1_dropShadow_1_214"/>
<feOffset dx="4" dy="12"/>
<feGaussianBlur stdDeviation="10"/>
<feColorMatrix type="matrix" values="0 0 0 0 0.882353 0 0 0 0 0 0 0 0 0 1 0 0 0 0.21 0"/>
<feBlend mode="normal" in2="BackgroundImageFix" result="effect1_dropShadow_1_214"/>
<feBlend mode="normal" in="SourceGraphic" in2="effect1_dropShadow_1_214" result="shape"/>
</filter>
<linearGradient id="paint0_linear_1_214" x1="-0.714885" y1="-1.57102" x2="26.418" y2="26.5726" gradientUnits="userSpaceOnUse">
<stop stop-color="#7F00FF"/>
<stop offset="1" stop-color="#E100FF"/>
</linearGradient>
<clipPath id="clip0_1_214">
<rect width="24" height="24" fill="white"/>
</clipPath>
</defs>
<g clip-path="url(#clip0_1_214)">
<g filter="url(#filter0_d_1_214)">
<path d="M12.9999 12H14.9999C15.2651 12 15.5195 12.1054 15.707 12.2929C15.8946 12.4805 15.9999 12.7348 15.9999 13C15.9999 13.2653 15.8946 13.5196 15.707 13.7072C15.5195 13.8947 15.2651 14 14.9999 14H11.9999C11.7347 14 11.4803 13.8947 11.2928 13.7072C11.1053 13.5196 10.9999 13.2653 10.9999 13V8.00005C10.9999 7.73483 11.1053 7.48047 11.2928 7.29294C11.4803 7.1054 11.7347 7.00005 11.9999 7.00005C12.2651 7.00005 12.5195 7.1054 12.707 7.29294C12.8946 7.48047 12.9999 7.73483 12.9999 8.00005V12ZM20.6299 10.438C21.0273 11.7807 21.1059 13.1975 20.8595 14.5759C20.6131 15.9542 20.0485 17.2561 19.2105 18.3779C18.3726 19.4997 17.2845 20.4105 16.0328 21.038C14.781 21.6654 13.4001 21.9921 11.9999 21.9921C10.5997 21.9921 9.21882 21.6654 7.96706 21.038C6.7153 20.4105 5.6272 19.4997 4.78929 18.3779C3.95138 17.2561 3.38677 15.9542 3.14037 14.5759C2.89396 13.1975 2.97256 11.7807 3.36992 10.438C2.89981 9.94187 2.53643 9.35458 2.30222 8.71245C2.068 8.07032 1.96793 7.38698 2.00819 6.70466C2.04845 6.02233 2.22818 5.35551 2.53627 4.74537C2.84437 4.13524 3.27429 3.59475 3.79948 3.1573C4.32467 2.71985 4.93397 2.39472 5.58975 2.202C6.24553 2.00929 6.93386 1.95307 7.61222 2.03683C8.29058 2.12059 8.94456 2.34254 9.53377 2.68898C10.123 3.03542 10.6349 3.49899 11.0379 4.05105C11.6774 3.98307 12.3224 3.98307 12.9619 4.05105C13.3649 3.49899 13.8769 3.03542 14.4661 2.68898C15.0553 2.34254 15.7093 2.12059 16.3876 2.03683C17.066 1.95307 17.7543 2.00929 18.4101 2.202C19.0659 2.39472 19.6752 2.71985 20.2004 3.1573C20.7255 3.59475 21.1555 4.13524 21.4636 4.74537C21.7717 5.35551 21.9514 6.02233 21.9916 6.70466C22.0319 7.38698 21.9318 8.07032 21.6976 8.71245C21.4634 9.35458 21.1 9.94187 20.6299 10.438ZM19.6919 8.32505C19.9898 7.72121 20.0759 7.03473 19.9363 6.37604C19.7968 5.71736 19.4397 5.12476 18.9225 4.69361C18.4054 4.26246 17.7582 4.01781 17.0852 3.99902C16.4121 3.98024 15.7523 4.18841 15.2119 4.59005C17.0773 5.3052 18.6529 6.61875 19.6919 8.32505ZM8.78692 4.59005C8.24652 4.18841 7.58672 3.98024 6.91367 3.99902C6.24063 4.01781 5.59347 4.26246 5.07631 4.69361C4.55916 5.12476 4.20208 5.71736 4.06252 6.37604C3.92296 7.03473 4.00905 7.72121 4.30692 8.32505C5.34597 6.61875 6.92154 5.3052 8.78692 4.59005ZM11.9999 20C12.9192 20 13.8294 19.819 14.6787 19.4672C15.528 19.1154 16.2997 18.5998 16.9497 17.9498C17.5997 17.2998 18.1153 16.5281 18.4671 15.6788C18.8189 14.8296 18.9999 13.9193 18.9999 13C18.9999 12.0808 18.8189 11.1705 18.4671 10.3213C18.1153 9.47198 17.5997 8.70031 16.9497 8.0503C16.2997 7.40029 15.528 6.88467 14.6787 6.53289C13.8294 6.18111 12.9192 6.00005 11.9999 6.00005C10.1434 6.00005 8.36292 6.73754 7.05017 8.0503C5.73741 9.36305 4.99992 11.1435 4.99992 13C4.99992 14.8566 5.73741 16.637 7.05017 17.9498C8.36292 19.2625 10.1434 20 11.9999 20Z" fill="url(#paint0_linear_1_214)"/>
</g>
</g>
</svg>
